<mxfile host="Electron" agent="Mozilla/5.0 (Windows NT 10.0; Win64; x64) AppleWebKit/537.36 (KHTML, like Gecko) draw.io/28.2.7 Chrome/138.0.7204.251 Electron/37.7.1 Safari/537.36" version="28.2.7">
  <diagram name="Side-1" id="vEcb7r1FbkoAgVDQ-KZY">
    <mxGraphModel dx="1426" dy="841" grid="1" gridSize="10" guides="1" tooltips="1" connect="1" arrows="1" fold="1" page="1" pageScale="1" pageWidth="827" pageHeight="1169" math="0" shadow="0">
      <root>
        <mxCell id="0" />
        <mxCell id="1" parent="0" />
        <mxCell id="oGrh0OWKbj5qWVAnwJxL-4" value="" style="edgeStyle=orthogonalEdgeStyle;rounded=0;orthogonalLoop=1;jettySize=auto;html=1;" edge="1" parent="1" source="oGrh0OWKbj5qWVAnwJxL-1" target="oGrh0OWKbj5qWVAnwJxL-3">
          <mxGeometry relative="1" as="geometry" />
        </mxCell>
        <mxCell id="oGrh0OWKbj5qWVAnwJxL-1" value="Start" style="rounded=1;whiteSpace=wrap;html=1;" vertex="1" parent="1">
          <mxGeometry x="334" y="30" width="80" height="40" as="geometry" />
        </mxCell>
        <mxCell id="oGrh0OWKbj5qWVAnwJxL-6" value="" style="edgeStyle=orthogonalEdgeStyle;rounded=0;orthogonalLoop=1;jettySize=auto;html=1;" edge="1" parent="1" source="oGrh0OWKbj5qWVAnwJxL-3" target="oGrh0OWKbj5qWVAnwJxL-5">
          <mxGeometry relative="1" as="geometry" />
        </mxCell>
        <mxCell id="oGrh0OWKbj5qWVAnwJxL-3" value="Set:&lt;br&gt;Swapped = false" style="rounded=0;whiteSpace=wrap;html=1;" vertex="1" parent="1">
          <mxGeometry x="324" y="100" width="100" height="50" as="geometry" />
        </mxCell>
        <mxCell id="oGrh0OWKbj5qWVAnwJxL-8" value="" style="edgeStyle=orthogonalEdgeStyle;rounded=0;orthogonalLoop=1;jettySize=auto;html=1;" edge="1" parent="1" source="oGrh0OWKbj5qWVAnwJxL-5" target="oGrh0OWKbj5qWVAnwJxL-7">
          <mxGeometry relative="1" as="geometry" />
        </mxCell>
        <mxCell id="oGrh0OWKbj5qWVAnwJxL-5" value="Check values in array" style="rounded=0;whiteSpace=wrap;html=1;" vertex="1" parent="1">
          <mxGeometry x="314" y="200" width="120" height="40" as="geometry" />
        </mxCell>
        <mxCell id="oGrh0OWKbj5qWVAnwJxL-9" style="edgeStyle=orthogonalEdgeStyle;rounded=0;orthogonalLoop=1;jettySize=auto;html=1;exitX=1;exitY=0.5;exitDx=0;exitDy=0;entryX=1;entryY=0.25;entryDx=0;entryDy=0;" edge="1" parent="1" source="oGrh0OWKbj5qWVAnwJxL-7" target="oGrh0OWKbj5qWVAnwJxL-5">
          <mxGeometry relative="1" as="geometry">
            <Array as="points">
              <mxPoint x="470" y="335" />
              <mxPoint x="470" y="210" />
            </Array>
          </mxGeometry>
        </mxCell>
        <mxCell id="oGrh0OWKbj5qWVAnwJxL-10" value="No" style="edgeLabel;html=1;align=center;verticalAlign=middle;resizable=0;points=[];" vertex="1" connectable="0" parent="oGrh0OWKbj5qWVAnwJxL-9">
          <mxGeometry x="0.0297" y="-2" relative="1" as="geometry">
            <mxPoint as="offset" />
          </mxGeometry>
        </mxCell>
        <mxCell id="oGrh0OWKbj5qWVAnwJxL-12" value="" style="edgeStyle=orthogonalEdgeStyle;rounded=0;orthogonalLoop=1;jettySize=auto;html=1;" edge="1" parent="1" source="oGrh0OWKbj5qWVAnwJxL-7" target="oGrh0OWKbj5qWVAnwJxL-11">
          <mxGeometry relative="1" as="geometry" />
        </mxCell>
        <mxCell id="oGrh0OWKbj5qWVAnwJxL-13" value="Yes" style="edgeLabel;html=1;align=center;verticalAlign=middle;resizable=0;points=[];" vertex="1" connectable="0" parent="oGrh0OWKbj5qWVAnwJxL-12">
          <mxGeometry x="-0.35" y="2" relative="1" as="geometry">
            <mxPoint as="offset" />
          </mxGeometry>
        </mxCell>
        <mxCell id="oGrh0OWKbj5qWVAnwJxL-7" value="If&lt;br&gt;i - 1 &amp;gt; i" style="rhombus;whiteSpace=wrap;html=1;" vertex="1" parent="1">
          <mxGeometry x="319" y="280" width="110" height="110" as="geometry" />
        </mxCell>
        <mxCell id="oGrh0OWKbj5qWVAnwJxL-16" value="" style="edgeStyle=orthogonalEdgeStyle;rounded=0;orthogonalLoop=1;jettySize=auto;html=1;" edge="1" parent="1" source="oGrh0OWKbj5qWVAnwJxL-11" target="oGrh0OWKbj5qWVAnwJxL-15">
          <mxGeometry relative="1" as="geometry" />
        </mxCell>
        <mxCell id="oGrh0OWKbj5qWVAnwJxL-11" value="Swap&amp;nbsp;" style="rounded=0;whiteSpace=wrap;html=1;" vertex="1" parent="1">
          <mxGeometry x="329" y="430" width="90" height="40" as="geometry" />
        </mxCell>
        <mxCell id="oGrh0OWKbj5qWVAnwJxL-18" value="" style="edgeStyle=orthogonalEdgeStyle;rounded=0;orthogonalLoop=1;jettySize=auto;html=1;" edge="1" parent="1" source="oGrh0OWKbj5qWVAnwJxL-15" target="oGrh0OWKbj5qWVAnwJxL-17">
          <mxGeometry relative="1" as="geometry" />
        </mxCell>
        <mxCell id="oGrh0OWKbj5qWVAnwJxL-15" value="Set:&lt;br&gt;Swapped = true" style="rounded=0;whiteSpace=wrap;html=1;" vertex="1" parent="1">
          <mxGeometry x="324" y="520" width="100" height="50" as="geometry" />
        </mxCell>
        <mxCell id="oGrh0OWKbj5qWVAnwJxL-20" value="" style="edgeStyle=orthogonalEdgeStyle;rounded=0;orthogonalLoop=1;jettySize=auto;html=1;" edge="1" parent="1" source="oGrh0OWKbj5qWVAnwJxL-17" target="oGrh0OWKbj5qWVAnwJxL-19">
          <mxGeometry relative="1" as="geometry" />
        </mxCell>
        <mxCell id="oGrh0OWKbj5qWVAnwJxL-21" value="No" style="edgeLabel;html=1;align=center;verticalAlign=middle;resizable=0;points=[];" vertex="1" connectable="0" parent="oGrh0OWKbj5qWVAnwJxL-20">
          <mxGeometry x="-0.1026" y="-1" relative="1" as="geometry">
            <mxPoint as="offset" />
          </mxGeometry>
        </mxCell>
        <mxCell id="oGrh0OWKbj5qWVAnwJxL-22" style="edgeStyle=orthogonalEdgeStyle;rounded=0;orthogonalLoop=1;jettySize=auto;html=1;exitX=0;exitY=0.5;exitDx=0;exitDy=0;entryX=0;entryY=0.25;entryDx=0;entryDy=0;" edge="1" parent="1" source="oGrh0OWKbj5qWVAnwJxL-17" target="oGrh0OWKbj5qWVAnwJxL-3">
          <mxGeometry relative="1" as="geometry">
            <Array as="points">
              <mxPoint x="200" y="670" />
              <mxPoint x="200" y="113" />
            </Array>
          </mxGeometry>
        </mxCell>
        <mxCell id="oGrh0OWKbj5qWVAnwJxL-23" value="Text" style="edgeLabel;html=1;align=center;verticalAlign=middle;resizable=0;points=[];" vertex="1" connectable="0" parent="oGrh0OWKbj5qWVAnwJxL-22">
          <mxGeometry x="0.0056" y="1" relative="1" as="geometry">
            <mxPoint as="offset" />
          </mxGeometry>
        </mxCell>
        <mxCell id="oGrh0OWKbj5qWVAnwJxL-25" value="Yes" style="edgeLabel;html=1;align=center;verticalAlign=middle;resizable=0;points=[];" vertex="1" connectable="0" parent="oGrh0OWKbj5qWVAnwJxL-22">
          <mxGeometry x="-0.8671" y="4" relative="1" as="geometry">
            <mxPoint as="offset" />
          </mxGeometry>
        </mxCell>
        <mxCell id="oGrh0OWKbj5qWVAnwJxL-17" value="Check:&lt;br&gt;Did any swaps happen?" style="rhombus;whiteSpace=wrap;html=1;" vertex="1" parent="1">
          <mxGeometry x="316" y="610" width="116" height="120" as="geometry" />
        </mxCell>
        <mxCell id="oGrh0OWKbj5qWVAnwJxL-19" value="Exit" style="rounded=1;whiteSpace=wrap;html=1;" vertex="1" parent="1">
          <mxGeometry x="510" y="650" width="80" height="40" as="geometry" />
        </mxCell>
      </root>
    </mxGraphModel>
  </diagram>
</mxfile>
